<svg xmlns="http://www.w3.org/2000/svg" xmlns:xlink="http://www.w3.org/1999/xlink" viewBox="0 0 648.54 219.51"><defs><style>.cls-1,.cls-2,.cls-3{stroke-miterlimit:10;}.cls-1{fill:url(#linear-gradient);stroke:url(#linear-gradient-2);}.cls-2{fill:url(#linear-gradient-3);stroke:url(#linear-gradient-4);}.cls-3{fill:url(#linear-gradient-5);stroke:url(#linear-gradient-6);}.cls-4{fill:#d342c6;}.cls-5{fill:url(#linear-gradient-7);}.cls-6{fill:url(#linear-gradient-8);}.cls-7{fill:url(#linear-gradient-9);}.cls-8{fill:url(#linear-gradient-10);}.cls-9{fill:url(#linear-gradient-11);}.cls-10{fill:url(#linear-gradient-12);}.cls-11{fill:url(#linear-gradient-13);}.cls-12{fill:url(#linear-gradient-14);}.cls-13{fill:url(#linear-gradient-15);}.cls-14{fill:url(#linear-gradient-16);}.cls-15{fill:url(#linear-gradient-17);}.cls-16{fill:url(#linear-gradient-18);}.cls-17{fill:url(#linear-gradient-19);}.cls-18{fill:url(#linear-gradient-20);}.cls-19{fill:url(#linear-gradient-21);}.cls-20{fill:url(#linear-gradient-22);}</style><linearGradient id="linear-gradient" x1="555.39" y1="355.42" x2="691.58" y2="355.42" gradientUnits="userSpaceOnUse"><stop offset="0" stop-color="#29abe2"/><stop offset="1" stop-color="#0071bc"/></linearGradient><linearGradient id="linear-gradient-2" x1="554.89" y1="355.42" x2="692.12" y2="355.42" xlink:href="#linear-gradient"/><linearGradient id="linear-gradient-3" x1="887.36" y1="387.31" x2="981.83" y2="387.31" xlink:href="#linear-gradient"/><linearGradient id="linear-gradient-4" x1="886.76" y1="387.31" x2="982.33" y2="387.31" xlink:href="#linear-gradient"/><linearGradient id="linear-gradient-5" x1="720" y1="390" x2="873" y2="390" xlink:href="#linear-gradient"/><linearGradient id="linear-gradient-6" x1="719.5" y1="390" x2="873.5" y2="390" xlink:href="#linear-gradient"/><linearGradient id="linear-gradient-7" x1="502.81" y1="273.5" x2="535.3" y2="273.5" xlink:href="#linear-gradient"/><linearGradient id="linear-gradient-8" x1="388.4" y1="451.29" x2="426.25" y2="451.29" xlink:href="#linear-gradient"/><linearGradient id="linear-gradient-9" x1="501.09" y1="451.29" x2="527.31" y2="451.29" xlink:href="#linear-gradient"/><linearGradient id="linear-gradient-10" x1="498.61" y1="285.45" x2="529.63" y2="285.45" xlink:href="#linear-gradient"/><linearGradient id="linear-gradient-11" x1="508.65" y1="262.71" x2="537.58" y2="262.71" xlink:href="#linear-gradient"/><linearGradient id="linear-gradient-12" x1="416.46" y1="384.5" x2="469.72" y2="384.5" xlink:href="#linear-gradient"/><linearGradient id="linear-gradient-13" x1="356.15" y1="384.5" x2="410.3" y2="384.5" xlink:href="#linear-gradient"/><linearGradient id="linear-gradient-14" x1="506.09" y1="384.5" x2="532.31" y2="384.5" xlink:href="#linear-gradient"/><linearGradient id="linear-gradient-15" x1="392.18" y1="433.5" x2="444.71" y2="433.5" xlink:href="#linear-gradient"/><linearGradient id="linear-gradient-16" x1="512.09" y1="433.5" x2="538.31" y2="433.5" xlink:href="#linear-gradient"/><linearGradient id="linear-gradient-17" x1="451.3" y1="319.17" x2="481.36" y2="319.17" xlink:href="#linear-gradient"/><linearGradient id="linear-gradient-18" x1="344.87" y1="319.17" x2="375.56" y2="319.17" xlink:href="#linear-gradient"/><linearGradient id="linear-gradient-19" x1="506.09" y1="319.17" x2="532.31" y2="319.17" xlink:href="#linear-gradient"/><linearGradient id="linear-gradient-20" x1="343.78" y1="334" x2="379.24" y2="334" xlink:href="#linear-gradient"/><linearGradient id="linear-gradient-21" x1="439.69" y1="334" x2="474.35" y2="334" xlink:href="#linear-gradient"/><linearGradient id="linear-gradient-22" x1="502.09" y1="334" x2="528.31" y2="334" xlink:href="#linear-gradient"/></defs><g id="Layer_1" data-name="Layer 1"><path class="cls-1" d="M690.38,248V422.33c0,12.81.3,27.41,1.2,37.25H668l-1.19-25h-.59c-8,16.1-25.63,28.32-49.17,28.32-34.87,0-61.69-29.51-61.69-73.31-.3-48,29.5-77.49,64.67-77.49,22.05,0,37,10.44,43.5,22.06h.6V248ZM664.16,374.05A46.53,46.53,0,0,0,663,363c-3.88-16.68-18.18-30.39-37.85-30.39-27.12,0-43.21,23.84-43.21,55.72,0,29.21,14.31,53.35,42.62,53.35,17.58,0,33.67-11.62,38.44-31.29a45.82,45.82,0,0,0,1.19-11.33Z" transform="translate(-333.78 -247.49)"/><path class="cls-2" d="M893.92,432.76c7.74,5.06,21.45,10.43,34.56,10.43,19.08,0,28-9.54,28-21.46,0-12.52-7.46-19.37-26.83-26.52-25.92-9.24-38.14-23.54-38.14-40.83,0-23.24,18.77-42.32,49.77-42.32,14.6,0,27.41,4.18,35.46,8.95l-6.56,19.07a56.08,56.08,0,0,0-29.5-8.35c-15.49,0-24.14,8.94-24.14,19.67,0,11.92,8.65,17.29,27.42,24.44,25,9.53,37.85,22.05,37.85,43.51,0,25.33-19.67,43.21-53.94,43.21-15.8,0-30.4-3.88-40.53-9.84Z" transform="translate(-333.78 -247.49)"/><path class="cls-3" d="M796.5,313.5A76.5,76.5,0,1,0,873,390,76.5,76.5,0,0,0,796.5,313.5Zm52.92,45.9H824.83q-1.73-12.91-4.32-25.68A61.59,61.59,0,0,1,849.42,359.4Zm-45.16-30c.52,2.69,3,15.59,4.93,30H783.81c2-14.46,4.41-27.36,4.93-30a55,55,0,0,1,15.52,0ZM811.8,390c0,4.57-.33,9.84-.83,15.3H782c-.5-5.46-.83-10.73-.83-15.3s.33-9.84.83-15.3H811C811.47,380.16,811.8,385.43,811.8,390Zm-39.31-56.28q-2.6,12.76-4.32,25.68H743.58A61.59,61.59,0,0,1,772.49,333.72Zm-35.18,41h29.23c-.39,5.11-.64,10.28-.64,15.3s.25,10.19.65,15.3H737.31a59.24,59.24,0,0,1,0-30.6Zm6.27,45.9h24.59c1.44,10.89,3.22,20.27,4.32,25.68A61.59,61.59,0,0,1,743.58,420.6Zm45.16,30q-2.85-15-4.93-30h25.38q-2.09,15.09-4.93,30a55,55,0,0,1-15.52,0Zm31.77-4.37c1.1-5.41,2.88-14.79,4.32-25.68h24.59A61.59,61.59,0,0,1,820.51,446.28Zm35.18-41H826.46c.39-5.11.64-10.28.64-15.3s-.25-10.19-.65-15.3h29.23a59.09,59.09,0,0,1,0,30.6Z" transform="translate(-333.78 -247.49)"/></g><g id="Layer_2" data-name="Layer 2"><path class="cls-4" d="M402.82,433.35h.89q1.29-4.67,2.75-9.35H400.3C401.2,427.13,402,430.24,402.82,433.35Z" transform="translate(-333.78 -247.49)"/><path class="cls-4" d="M525.29,274.81a18,18,0,0,0-1.71-7.81H494.65a17.1,17.1,0,0,0-1.84,7.81,17.34,17.34,0,0,0,.8,5.19h31A16.12,16.12,0,0,0,525.29,274.81Z" transform="translate(-333.78 -247.49)"/><path class="cls-4" d="M384.71,459.58h25L416.25,443H378.4Z" transform="translate(-333.78 -247.49)"/><path class="cls-4" d="M491.09,459.58h26.22V443H491.09Z" transform="translate(-333.78 -247.49)"/><path class="cls-4" d="M503.6,290.91c8.31,0,14.15-4.55,16-10.91h-31A15.36,15.36,0,0,0,503.6,290.91Z" transform="translate(-333.78 -247.49)"/><path class="cls-4" d="M513.2,258.42A16,16,0,0,0,498.65,267h28.93C525.08,261.84,520,258.42,513.2,258.42Z" transform="translate(-333.78 -247.49)"/><path class="cls-4" d="M433.69,345l-17.76,51.4c-3.52,9.69-6.72,18.73-9.47,27.6h22.25l31-79Z" transform="translate(-333.78 -247.49)"/><path class="cls-4" d="M391.2,396.4l-18-51.4H346.15l30,79H400.3C397.75,415.13,394.72,406.09,391.2,396.4Z" transform="translate(-333.78 -247.49)"/><path class="cls-4" d="M496.09,345v79h26.22V345Z" transform="translate(-333.78 -247.49)"/><path class="cls-4" d="M412.46,424q-1.45,4.69-2.75,9.35h-.89c-.78-3.11-1.62-6.22-2.52-9.35H382.18l7.22,19h37.85l7.46-19Z" transform="translate(-333.78 -247.49)"/><path class="cls-4" d="M502.09,443h26.22V424H502.09Z" transform="translate(-333.78 -247.49)"/><path class="cls-4" d="M471.36,315.34H443.94L441.3,323h27.05Z" transform="translate(-333.78 -247.49)"/><path class="cls-4" d="M362.89,315.34h-28l2.91,7.66h27.78Z" transform="translate(-333.78 -247.49)"/><path class="cls-4" d="M522.31,315.34H496.09V323h26.22Z" transform="translate(-333.78 -247.49)"/><path class="cls-4" d="M361.56,323H333.78l8.37,22h27.09Z" transform="translate(-333.78 -247.49)"/><path class="cls-4" d="M455.72,345l8.63-22H437.3l-7.61,22Z" transform="translate(-333.78 -247.49)"/><path class="cls-4" d="M518.31,345V323H492.09v22Z" transform="translate(-333.78 -247.49)"/><path class="cls-5" d="M535.29,274.81a18,18,0,0,0-1.71-7.81H504.65a17.1,17.1,0,0,0-1.84,7.81,17.34,17.34,0,0,0,.8,5.19h31A16.12,16.12,0,0,0,535.29,274.81Z" transform="translate(-333.78 -247.49)"/><path class="cls-6" d="M394.71,459.58h25L426.25,443H388.4Z" transform="translate(-333.78 -247.49)"/><path class="cls-7" d="M501.09,459.58h26.22V443H501.09Z" transform="translate(-333.78 -247.49)"/><path class="cls-8" d="M513.6,290.91c8.31,0,14.15-4.55,16-10.91h-31A15.36,15.36,0,0,0,513.6,290.91Z" transform="translate(-333.78 -247.49)"/><path class="cls-9" d="M523.2,258.42A16,16,0,0,0,508.65,267h28.93C535.08,261.84,530,258.42,523.2,258.42Z" transform="translate(-333.78 -247.49)"/><path class="cls-10" d="M443.69,345l-17.76,51.4c-3.52,9.69-6.72,18.73-9.47,27.6h22.25l31-79Z" transform="translate(-333.78 -247.49)"/><path class="cls-11" d="M401.2,396.4l-18-51.4H356.15l30,79H410.3C407.75,415.13,404.72,406.09,401.2,396.4Z" transform="translate(-333.78 -247.49)"/><path class="cls-12" d="M506.09,345v79h26.22V345Z" transform="translate(-333.78 -247.49)"/><path class="cls-13" d="M422.46,424q-1.45,4.69-2.75,9.35h-.89c-.78-3.11-1.62-6.22-2.52-9.35H392.18l7.22,19h37.85l7.46-19Z" transform="translate(-333.78 -247.49)"/><path class="cls-14" d="M512.09,443h26.22V424H512.09Z" transform="translate(-333.78 -247.49)"/><path class="cls-15" d="M481.36,315.34H453.94L451.3,323h27.05Z" transform="translate(-333.78 -247.49)"/><path class="cls-16" d="M372.89,315.34h-28l2.91,7.66h27.78Z" transform="translate(-333.78 -247.49)"/><path class="cls-17" d="M532.31,315.34H506.09V323h26.22Z" transform="translate(-333.78 -247.49)"/><path class="cls-18" d="M371.56,323H343.78l8.37,22h27.09Z" transform="translate(-333.78 -247.49)"/><path class="cls-19" d="M465.72,345l8.63-22H447.3l-7.61,22Z" transform="translate(-333.78 -247.49)"/><path class="cls-20" d="M528.31,345V323H502.09v22Z" transform="translate(-333.78 -247.49)"/></g></svg>